<?xml version="1.0" encoding="UTF-8" standalone="no"?>
<!-- Created with Inkscape (http://www.inkscape.org/) -->

<svg
   width="180"
   height="180"
   viewBox="0 0 180 180"
   version="1.1"
   id="svg1"
   xml:space="preserve"
   inkscape:version="1.3.2 (091e20e, 2023-11-25, custom)"
   sodipodi:docname="logo.svg"
   xmlns:inkscape="http://www.inkscape.org/namespaces/inkscape"
   xmlns:sodipodi="http://sodipodi.sourceforge.net/DTD/sodipodi-0.dtd"
   xmlns="http://www.w3.org/2000/svg"
   xmlns:svg="http://www.w3.org/2000/svg"><sodipodi:namedview
     id="namedview1"
     pagecolor="#ffffff"
     bordercolor="#eeeeee"
     borderopacity="1"
     inkscape:showpageshadow="0"
     inkscape:pageopacity="0"
     inkscape:pagecheckerboard="0"
     inkscape:deskcolor="#818181"
     inkscape:document-units="px"
     inkscape:zoom="2.2966961"
     inkscape:cx="101.66778"
     inkscape:cy="98.184517"
     inkscape:window-width="1366"
     inkscape:window-height="697"
     inkscape:window-x="-8"
     inkscape:window-y="-8"
     inkscape:window-maximized="1"
     inkscape:current-layer="layer1" /><defs
     id="defs1" /><g
     inkscape:label="Calque 1"
     inkscape:groupmode="layer"
     id="layer1"><g
       id="g9"
       transform="matrix(2.5253794,0,0,2.4539404,-140.57793,-40.217185)"
       style="fill:#099f7f;fill-opacity:1;stroke:#0a9d7d;stroke-opacity:0.97550112"><path
         style="opacity:0.520661;fill:#099f7f;fill-opacity:1;stroke:#0a9d7d;stroke-width:2;stroke-linecap:round;stroke-linejoin:round;stroke-dasharray:none;stroke-opacity:0.97550112;paint-order:stroke fill markers"
         d="m 84.128387,31.033349 c 0,0 -3.18406,-3.48931 -5.097131,-3.116028 -1.913071,0.373282 -3.585119,2.006123 -5.114045,3.596207 -1.528927,1.590083 -9.422698,9.4702 -9.422698,9.4702 0,0 -0.877675,1.140977 -1.843117,4.651675 -0.965442,3.510699 0.886971,10.462371 0.886971,10.462371 0,0 5.314452,9.395193 6.07366,13.048879 0.759208,3.653687 5.394564,-6.154197 8.031471,-15.548177 2.636906,-9.393979 6.484889,-22.565127 6.484889,-22.565127 z"
         id="path6" /><path
         style="opacity:0.520661;fill:#099f7f;fill-opacity:1;stroke:#0a9d7d;stroke-width:2;stroke-linecap:round;stroke-linejoin:round;stroke-dasharray:none;stroke-opacity:0.97550112;paint-order:stroke fill markers"
         d="m 72.786294,73.456357 c 0,0 -0.749031,9.191672 4.854395,9.850899 5.603427,0.659227 13.364903,0.824033 13.364903,0.824033 l 6.24709,-6.592266 14.374848,-1.447227 c 0,0 13.54581,-13.910141 6.00665,-13.795912 -6.35543,0.09629 -22.291149,0.653041 -35.461047,-2.393617 -1.863527,-0.431099 -4.085816,6.164862 -4.405142,7.191266 -1.599217,5.14034 -4.981697,6.362824 -4.981697,6.362824 z"
         id="path7"
         sodipodi:nodetypes="cscccsssc" /><path
         style="opacity:0.520661;fill:#099f7f;fill-opacity:1;stroke:#0a9d7d;stroke-width:2;stroke-linecap:round;stroke-linejoin:round;stroke-dasharray:none;stroke-opacity:0.97550112;paint-order:stroke fill markers"
         d="m 87.177054,28.984578 c 6.798852,-6.530476 5.814808,-9.840443 9.214234,-3.846719 3.399425,5.993725 10.466652,17.712798 10.913952,19.591428 0.44729,1.87863 3.57834,14.184929 -9.124781,13.086189 C 85.477342,56.716736 79.431,59.65943 82.883043,48.705474 86.335085,37.751519 87.177054,28.984578 87.177054,28.984578 Z"
         id="path8" /><path
         style="opacity:0.520661;fill:#099f7f;fill-opacity:1;stroke:#0a9d7d;stroke-width:2;stroke-linecap:round;stroke-linejoin:round;stroke-dasharray:none;stroke-opacity:0.97550112;paint-order:stroke fill markers"
         d="m 111.33529,48.705474 c 5.1886,10.178734 13.95554,10.178734 5.1886,10.178734 -8.76694,0 -6.44102,-3.328821 -5.72535,-6.753777 0.71567,-3.424957 0.53675,-3.424957 0.53675,-3.424957 z"
         id="path9" /></g></g></svg>
